<?xml version="1.0" encoding="UTF-8"?>
<svg id="Layer_1" data-name="Layer 1" xmlns="http://www.w3.org/2000/svg" viewBox="0 0 962.96 296.23">
  <defs>
    <style>
      .cls-1 {
        fill: #fdad07;
      }

      .cls-2 {
        fill: #fefefe;
      }

      .cls-3 {
        fill: #7b43fd;
      }
    </style>
  </defs>
  <path class="cls-1" d="M130.4,242.5c.69,3.39-10.38,20.5-9.24,21.52,6.22.22,15.36-.07,20.44,3.65,8.08,5.92,10.87,22.79-.11,26.43-11.53,3.81-49.34,2.02-61.03-2.2-4.65-1.68-8.9-5.48-12.63-6.86-5.74-2.13-13.17-2.36-19.75-4.85C-7.61,259.14-14.06,163.27,24.26,124.62c11.34-11.44,36.12-23.32,47.52-5.48,13.67,21.42-17.5,32.58-26.91,46.57-12.5,18.57-12.56,47.96-.42,66.87,2.22,3.46,5.12,7.41,9.04,8.9-1.89-33.58,6.36-66.1,26.25-93.2,11.05-15.04,25.8-26.94,37.34-41.61-33.07-5.86-40.46-63.78-.1-62.11C128.31,3.53,180.48-12.45,215.23,10.61c18.16,12.04,35.54,41.03,32.98,63.16-.53,4.58-3.9,9.9-4.06,13.45-.43,9.17,6.7,12.29,2.4,26.93-4.94,16.78-19.17,25.24-35.73,27.88,4.81,19.78-4,37.74-2.54,57.98.82,11.22,10.76,55.69,18.57,62.42,3.93,3.38,9.88,2.64,14.12,7.4,8.42,9.47,3.72,21.41-7.99,24.5-10.87,2.88-50.93,2.48-61.55-1.11-17.42-5.89-29.66-37.53-41.03-50.72h-.01ZM181.14,283.51c6.66.94,15.16-.69,22.04,0-2.38-7.19-12.11-5.94-17.93-10.26-11.75-8.71-22.26-49.78-24.65-64.55-1.51-9.37-3.87-27.41-2.48-36.35,1.25-8.05,11.26-10.26,12.29,1.95.25,3.07-.5,34.39,2.49,34.33,19.6-6.85,28.41-38.17,27.24-56.89-.97-15.72-6.67-11.44-16.46-19.43-12.77-10.41-16.49-27.56-8.2-41.98-17.15-10.09-23.65-37.59-6.08-50.23,17.57-12.64,36.26,3.43,54.27-3.14-15.49-26.42-50.21-31.51-75.39-15.92-7.07,4.37-22.28,20.06-19.52,28.77,1.19,3.75,8.42,9.06,2.01,13.18-7.67,4.94-10.58-5.35-16.25-6.1-21.31-2.83-14.34,35.48,3.26,37.77,4.01.52,20.24-6.52,18.58,3.58-.4,2.44-9.05,14.85-11.16,17.61-23.44,30.59-47.8,42.29-56.88,84.6-4.52,21.08-7.15,71.18,17.98,80.46,7.56,2.8,25.93,3.72,34.33,3.7,1.99,0,14.98-1.45,15.43-2.09,1.77-2.48-1.07-4.46-3.05-5.24-7.08-2.81-29.89.34-26.78-11.23,2.7-10.05,14.68-23.77,16.71-35.58,3.12-18.17-18.3-32.24-31.18-18.37-3.53,3.79-6.42,17.56-13.71,9.41-4.32-4.83-.36-9.46,2.67-13.77,8.33-11.82,21.72-15.31,35.28-10.35-.16-6.33-5.52-25.8,1.28-28.97,3.69-1.73,7.8-.06,8.75,4.09,1.2,5.18.54,14.96,1.38,21.17,3.16,23.59,23.73,65.56,40.34,82.69,2.62,2.7,9.73,6.63,13.37,7.14h.01ZM236,104.1c.85-5.87-5.03-11.68-5.18-16.96-.13-4.87,4.64-9.91,5.22-16.31.48-5.16.02-17.82-4.58-21.13-3.22-2.33-25.7-.35-31.86-.95-8.63-.85-13.79-5.89-23.01-.42-9.86,5.85-8.89,21.15-1.77,28.78,2.66,2.85,10.98,5.57,11.79,8.25,1.17,3.9-3.96,10.38-4.7,15.43-3.95,26.89,26.21,37.14,45.22,22.61,2.64-2.01,7.4-7.95,6.3-11.08-8.18,8.7-37.31,10.75-43.48.36-1.61-2.7-.14-6.6,2.67-7.41s6.58,3.09,10.29,3.73c5.93,1.01,15.58.62,21.04-2.05,2.11-1.04,4.77-4.28,6.66-4.73,2.53-.6,3.06,2.27,5.38,1.91h.01ZM61.67,272.22l-5.69-15.33c-36.83-16.33-41.5-74.39-16.89-103.09,5.16-6.02,21.84-16.13,23.36-21.76,3.12-11.61-10.6-11.29-18.21-7.95-28.23,12.36-34.55,58.3-31.77,85.08,2.94,28.37,19.51,57,49.2,63.06h0ZM213.44,283.51c.65.65,16.41.2,18.02-.96,5.66-4.09-9.08-8.01-11.79-9.87-10.7-7.35-17.4-41.57-20.25-54.58-.4-1.83-1.26-14.78-4.41-12.49-.11.08-.21,1.69-1.02,2.53-5.32,5.6-10.56,10.18-18.37,11.94.76,9.28,9.97,39.57,17.94,43.83,5.87,3.12,11.91,1.11,17.33,8.3,3.59,4.76,2.12,10.88,2.54,11.3h0Z"/>
  <path class="cls-3" d="M454.42,110.77c1.45-5.07,24.5-5.08,27.72-1.06l42.52,97.95-.3-95.64c-.24-7.05,20.36-5.54,22.92-3.88s3.53,5.91,3.56,8.75c-2.07,42.05,2.61,86.46,0,128.23-.17,2.65-.83,10.49-2.51,11.84-1.59,1.28-21.5,1.41-24.76.97-1.43-.19-2.68-.21-3.59-1.54l-39.94-91.8v90.72c0,1.83-4.06,2.47-5.58,2.63-3.21.32-20.06.85-20.06-2.63V110.78h.03Z"/>
  <path class="cls-3" d="M910.54,105.44c31.53-2.93,49.37,14.85,51.48,45.32,1.29,18.7,2.25,70.27-4.08,86.12-14.99,37.57-83.73,32.97-88.19-15.41-1.74-18.86-1.51-53.76-.05-72.8,1.9-24.64,15.69-40.9,40.84-43.23ZM913.6,128.98c-9.16,1.13-14.63,8.09-15.91,16.93-2.18,15.09-1.82,57.84-.25,73.53.78,7.86,4.49,16.26,13.06,17.7,11.77,1.99,21.33-1.15,23.76-13.69-1.63-24.57,2.5-52.62.07-76.78-1.13-11.3-8.91-19.15-20.73-17.69h0Z"/>
  <path class="cls-3" d="M798.77,105.44c26.65-1.04,46.91,11.13,49.41,39.18,1.47,16.58,2.09,72.04-1.75,86.38-6.87,25.74-28.61,32.19-53.08,29.93-15.09-1.39-28-11.01-33.37-25.07-6.5-17.03-5.32-74.63-2.92-94.21,2.73-22.36,19.84-35.36,41.71-36.21h-.01ZM799.77,128.98c-10.33,1.26-15,9.17-16.05,18.83-1.81,16.71-1.65,52.65-.12,69.56,1.36,14.86,8.87,21.89,24.11,20.03,8.13-1,12.78-8.46,13.71-16.03,1.98-16.27,1.62-54.95.1-71.62-1.18-12.85-7.63-22.51-21.76-20.77h.01Z"/>
  <path class="cls-3" d="M602.09,131.78v36.9h35.38c3.43,0,3.05,17.81,2.61,21.06-1.07,8-11.14,4.59-15.94,4.77-7.26.29-14.86,2.16-22.04-.2v39.98h40.5c5.8,0,4.22,23.58,1.03,23.58h-66.66c-.18,0-1.81-1.58-2.03-2.07V110.27l2.57-2.56,64.9-.34c6.34,1.9,4.46,24.4.2,24.4h-40.52Z"/>
  <path class="cls-3" d="M379.06,214.83c3.39.94,2.76,8.95,2.54,11.78-3.69,47.33-83.55,47.83-87.2-4.04-1.25-17.83-2.27-72.19,1.81-87.47,10.16-38.1,70.62-40.54,82.81-4.3,1.26,3.75,5.19,25.6.03,25.6h-20.51c-2.9,0-3.42-12.36-4.29-15.19-5.14-16.75-26.84-15.62-31.62-.2-3.25,10.5-2.68,63.35-1.56,76.42,1.22,14.25,10.41,25.08,25.38,19.15,6.13-2.43,7.44-6.61,9.07-12.47.52-1.84.2-9.29,3.02-9.29,4.55,0,17.24-.91,20.51,0h0Z"/>
  <path class="cls-3" d="M691.31,234.3h46.66c5.8,0,4.22,23.58,1.03,23.58h-75.88c-4.49,0-4.13-17.36-3.1-20.53l48.73-105.56h-44.6c-5.89,0-6.95-22.56-.83-24.4l72.66-.25c8.15,1.09,5.51,13.45,5.11,19.56l-49.76,107.61h-.01Z"/>
  <path class="cls-3" d="M405.93,107.4c4.53-1.3,25.33-2.26,23.9,6.43v138.43c-.11,1.54-.71,4.34-2.05,5.13-.48.28-9.52,1.51-10.78,1.53-1.49.01-11.07-.93-12.11-1.23s-1.74-.97-2.26-1.84l-.56-143.06c-.1-2.12,1.89-4.8,3.86-5.37h.01Z"/>
  <path class="cls-2" d="M181.14,283.51c-3.63-.51-10.75-4.44-13.37-7.14-16.61-17.13-37.19-59.1-40.34-82.69-.83-6.22-.18-15.99-1.38-21.17-.95-4.14-5.06-5.8-8.75-4.09-6.8,3.18-1.44,22.65-1.28,28.97-13.56-4.95-26.96-1.46-35.28,10.35-3.03,4.31-6.99,8.94-2.67,13.77,7.29,8.16,10.19-5.61,13.71-9.41,12.88-13.88,34.31.2,31.18,18.37-2.03,11.81-14.01,25.53-16.71,35.58-3.11,11.57,19.7,8.42,26.78,11.23,1.98.78,4.83,2.76,3.05,5.24-.46.64-13.44,2.08-15.43,2.09-8.4.03-26.77-.9-34.33-3.7-25.12-9.29-22.5-59.38-17.98-80.46,9.08-42.32,33.44-54.02,56.88-84.6,2.12-2.76,10.76-15.18,11.16-17.61,1.66-10.12-14.56-3.06-18.58-3.58-17.6-2.28-24.57-40.59-3.26-37.77,5.67.75,8.58,11.04,16.25,6.1,6.41-4.12-.83-9.43-2.01-13.18-2.75-8.71,12.46-24.39,19.52-28.77,25.19-15.58,59.9-10.5,75.39,15.92-18.02,6.57-37.49-8.95-54.27,3.14-16.79,12.09-11.07,40.13,6.08,50.23-8.29,14.42-4.57,31.56,8.2,41.98,9.79,7.99,15.49,3.71,16.46,19.43,1.17,18.72-7.66,50.03-27.24,56.89-2.99.05-2.23-31.27-2.49-34.33-1.03-12.21-11.04-10-12.29-1.95-1.39,8.95.96,26.98,2.48,36.35,2.38,14.77,12.89,55.84,24.65,64.55,5.83,4.32,15.56,3.06,17.93,10.26-6.88-.69-15.39.94-22.04,0h-.01Z"/>
  <path class="cls-2" d="M236,104.1c-2.32.36-2.85-2.51-5.38-1.91-1.9.46-4.55,3.7-6.66,4.73-5.46,2.68-15.1,3.06-21.04,2.05-3.71-.64-7.46-4.54-10.29-3.73s-4.28,4.7-2.67,7.41c6.18,10.39,35.3,8.34,43.48-.36,1.1,3.14-3.66,9.07-6.3,11.08-19.02,14.52-49.17,4.29-45.22-22.61.74-5.05,5.86-11.53,4.7-15.43-.81-2.69-9.13-5.41-11.79-8.25-7.12-7.63-8.09-22.93,1.77-28.78,9.22-5.47,14.36-.42,23.01.42,6.16.6,28.64-1.37,31.86.95,4.6,3.32,5.05,15.97,4.58,21.13-.58,6.41-5.35,11.44-5.22,16.31.14,5.26,6.02,11.09,5.18,16.96h-.01ZM187.53,60.23c-6.82,1.48-7.65,9.72-1.73,13.59,12.03,7.86,17.09-16.93,1.73-13.59ZM221.4,72.08c5.22-5.26-1.18-15.31-8.55-10.08s2.94,15.73,8.55,10.08ZM210.07,92.52c3.63-2.98,3.5-9.66-2.26-10.02-12.12-.76-5.65,16.51,2.26,10.02ZM220.33,82.79c-8.99,1.99-5.82,14.59,2.8,13.12,6.48-1.1,7.87-15.49-2.8-13.12Z"/>
  <path class="cls-2" d="M61.67,272.22c-29.69-6.07-46.26-34.69-49.2-63.06-2.78-26.78,3.55-72.72,31.77-85.08,7.61-3.34,21.33-3.64,18.21,7.95-1.51,5.62-18.2,15.74-23.36,21.76-24.61,28.71-19.93,86.77,16.89,103.09l5.69,15.33Z"/>
  <path class="cls-2" d="M213.44,283.51c-.42-.42,1.05-6.54-2.54-11.3-5.42-7.2-11.46-5.18-17.33-8.3-7.99-4.26-17.18-34.55-17.94-43.83,7.81-1.76,13.04-6.33,18.37-11.94.81-.85.9-2.46,1.02-2.53,3.14-2.29,4,10.66,4.41,12.49,2.86,13.01,9.55,47.23,20.25,54.58,2.71,1.86,17.45,5.77,11.79,9.87-1.61,1.17-17.37,1.61-18.02.96h0Z"/>
  <path class="cls-2" d="M913.6,128.98c11.82-1.45,19.6,6.39,20.73,17.69,2.43,24.16-1.71,52.21-.07,76.78-2.43,12.53-11.99,15.68-23.76,13.69-8.57-1.45-12.28-9.85-13.06-17.7-1.56-15.69-1.93-58.44.25-73.53,1.28-8.82,6.75-15.79,15.91-16.93h0Z"/>
  <path class="cls-2" d="M799.77,128.98c14.12-1.73,20.58,7.92,21.76,20.77,1.53,16.67,1.89,55.36-.1,71.62-.92,7.56-5.57,15.03-13.71,16.03-15.24,1.86-22.75-5.17-24.11-20.03-1.55-16.92-1.71-52.84.12-69.56,1.05-9.66,5.72-17.57,16.05-18.83h-.01Z"/>
  <path class="cls-1" d="M187.53,60.23c15.35-3.34,10.31,21.45-1.73,13.59-5.92-3.87-5.09-12.11,1.73-13.59Z"/>
  <path class="cls-1" d="M220.33,82.79c10.67-2.36,9.27,12.02,2.8,13.12-8.61,1.46-11.79-11.13-2.8-13.12Z"/>
  <path class="cls-1" d="M221.4,72.08c-5.61,5.66-16.09-4.73-8.55-10.08,7.54-5.35,13.77,4.82,8.55,10.08Z"/>
  <path class="cls-1" d="M210.07,92.52c-7.9,6.49-14.37-10.78-2.26-10.02,5.75.36,5.89,7.04,2.26,10.02Z"/>
</svg>