<?xml version="1.0" encoding="UTF-8"?>
<svg id="Layer_1" data-name="Layer 1" xmlns="http://www.w3.org/2000/svg" xmlns:xlink="http://www.w3.org/1999/xlink" viewBox="0 0 962.96 296.23">
  <defs>
    <style>
      .cls-1 {
        fill: #fdad07;
      }

      .cls-2 {
        fill: #3aff78;
      }

      .cls-3 {
        fill: #7b43fd;
      }

      .cls-4 {
        fill: url(#linear-gradient);
      }
    </style>
    <linearGradient id="linear-gradient" x1="161.74" y1="87.67" x2="224.5" y2="87.67" gradientUnits="userSpaceOnUse">
      <stop offset="0" stop-color="#3aff78"/>
      <stop offset=".38" stop-color="#3bfe76"/>
      <stop offset=".52" stop-color="#42fb72"/>
      <stop offset=".61" stop-color="#4ef66b"/>
      <stop offset=".69" stop-color="#5fef61"/>
      <stop offset=".76" stop-color="#75e553"/>
      <stop offset=".82" stop-color="#90da43"/>
      <stop offset=".88" stop-color="#b1cc2f"/>
      <stop offset=".92" stop-color="#d5bc19"/>
      <stop offset=".97" stop-color="#ffab00"/>
    </linearGradient>
  </defs>
  <path class="cls-1" d="M130.4,242.5c.69,3.39-10.38,20.5-9.24,21.52,6.22.22,15.36-.07,20.44,3.65,8.08,5.92,10.87,22.79-.11,26.43-11.53,3.81-49.34,2.02-61.03-2.2-4.65-1.68-8.9-5.48-12.63-6.86-5.74-2.13-13.17-2.36-19.75-4.85C-7.61,259.14-14.06,163.27,24.26,124.62c11.34-11.44,36.12-23.32,47.52-5.48,13.67,21.42-17.5,32.58-26.91,46.57-12.5,18.57-12.56,47.96-.42,66.87,2.22,3.46,5.12,7.41,9.04,8.9-1.89-33.58,6.36-66.1,26.25-93.2,11.05-15.04,25.8-26.94,37.34-41.61-33.07-5.86-40.46-63.78-.1-62.11C128.31,3.53,180.48-12.45,215.23,10.61c18.16,12.04,35.54,41.03,32.98,63.16-.53,4.58-3.9,9.9-4.06,13.45-.43,9.17,6.7,12.29,2.4,26.93-4.94,16.78-19.17,25.24-35.73,27.88,4.81,19.78-4,37.74-2.54,57.98.82,11.22,10.76,55.69,18.57,62.42,3.93,3.38,9.88,2.64,14.12,7.4,8.42,9.47,3.72,21.41-7.99,24.5-10.87,2.88-50.93,2.48-61.55-1.11-17.42-5.89-29.66-37.53-41.03-50.72h-.01ZM181.14,283.51c6.66.94,15.16-.69,22.04,0-2.38-7.19-12.11-5.94-17.93-10.26-11.75-8.71-22.26-49.78-24.65-64.55-1.51-9.37-3.87-27.41-2.48-36.35,1.25-8.05,11.26-10.26,12.29,1.95.25,3.07-.5,34.39,2.49,34.33,19.6-6.85,28.41-38.17,27.24-56.89-.97-15.72-6.67-11.44-16.46-19.43-12.77-10.41-16.49-27.56-8.2-41.98-17.15-10.09-23.65-37.59-6.08-50.23,17.57-12.64,36.26,3.43,54.27-3.14-15.49-26.42-50.21-31.51-75.39-15.92-7.07,4.37-22.28,20.06-19.52,28.77,1.19,3.75,8.42,9.06,2.01,13.18-7.67,4.94-10.58-5.35-16.25-6.1-21.31-2.83-14.34,35.48,3.26,37.77,4.01.52,20.24-6.52,18.58,3.58-.4,2.44-9.05,14.85-11.16,17.61-23.44,30.59-47.8,42.29-56.88,84.6-4.52,21.08-7.15,71.18,17.98,80.46,7.56,2.8,25.93,3.72,34.33,3.7,1.99,0,14.98-1.45,15.43-2.09,1.77-2.48-1.07-4.46-3.05-5.24-7.08-2.81-29.89.34-26.78-11.23,2.7-10.05,14.68-23.77,16.71-35.58,3.12-18.17-18.3-32.24-31.18-18.37-3.53,3.79-6.42,17.56-13.71,9.41-4.32-4.83-.36-9.46,2.67-13.77,8.33-11.82,21.72-15.31,35.28-10.35-.16-6.33-5.52-25.8,1.28-28.97,3.69-1.73,7.8-.06,8.75,4.09,1.2,5.18.54,14.96,1.38,21.17,3.16,23.59,23.73,65.56,40.34,82.69,2.62,2.7,9.73,6.63,13.37,7.14h.01ZM234.48,107.62c.85-5.87-3.51-15.2-3.66-20.48-.13-4.87,4.64-9.91,5.22-16.31.48-5.16.02-17.82-4.58-21.13-3.22-2.33-25.7-.35-31.86-.95-8.63-.85-13.79-5.89-23.01-.42-9.86,5.85-8.89,21.15-1.77,28.78,2.66,2.85,10.98,5.57,11.79,8.25,1.17,3.9-3.96,10.38-4.7,15.43-3.95,26.89,26.21,37.14,45.22,22.61,2.64-2.01,7.4-7.95,6.3-11.08-9.76-1.37-16.96,7.68-27.18,6.19-1.61-2.7-7.47-3.63-4.67-4.44s8.74.03,12.44.67c5.93,1.01,2.1,1.12,7.56-1.56,2.11-1.04,5.44-3.77,7.33-4.22,2.53-.6,4.75-4.48,7.07-4.84l-1.51,3.51ZM61.67,272.22l-5.69-15.33c-36.83-16.33-41.5-74.39-16.89-103.09,5.16-6.02,21.84-16.13,23.36-21.76,3.12-11.61-10.6-11.29-18.21-7.95-28.23,12.36-34.55,58.3-31.77,85.08,2.94,28.37,19.51,57,49.2,63.06h0ZM213.44,283.51c.65.65,16.41.2,18.02-.96,5.66-4.09-9.08-8.01-11.79-9.87-10.7-7.35-17.4-41.57-20.25-54.58-.4-1.83-1.26-14.78-4.41-12.49-.11.08-.21,1.69-1.02,2.53-5.32,5.6-10.56,10.18-18.37,11.94.76,9.28,9.97,39.57,17.94,43.83,5.87,3.12,11.91,1.11,17.33,8.3,3.59,4.76,2.12,10.88,2.54,11.3h0Z"/>
  <path class="cls-3" d="M454.42,110.77c1.45-5.07,24.5-5.08,27.72-1.06l42.52,97.95-.3-95.64c-.24-7.05,20.36-5.54,22.92-3.88s3.53,5.91,3.56,8.75c-2.07,42.05,2.61,86.46,0,128.23-.17,2.65-.83,10.49-2.51,11.84-1.59,1.28-21.5,1.41-24.76.97-1.43-.19-2.68-.21-3.59-1.54l-39.94-91.8v90.72c0,1.83-4.06,2.47-5.58,2.63-3.21.32-20.06.85-20.06-2.63V110.78h.03Z"/>
  <path class="cls-3" d="M910.54,105.44c31.53-2.93,49.37,14.85,51.48,45.32,1.29,18.7,2.25,70.27-4.08,86.12-14.99,37.57-83.73,32.97-88.19-15.41-1.74-18.86-1.51-53.76-.05-72.8,1.9-24.64,15.69-40.9,40.84-43.23ZM913.6,128.98c-9.16,1.13-14.63,8.09-15.91,16.93-2.18,15.09-1.82,57.84-.25,73.53.78,7.86,4.49,16.26,13.06,17.7,11.77,1.99,21.33-1.15,23.76-13.69-1.63-24.57,2.5-52.62.07-76.78-1.13-11.3-8.91-19.15-20.73-17.69h0Z"/>
  <path class="cls-3" d="M798.77,105.44c26.65-1.04,46.91,11.13,49.41,39.18,1.47,16.58,2.09,72.04-1.75,86.38-6.87,25.74-28.61,32.19-53.08,29.93-15.09-1.39-28-11.01-33.37-25.07-6.5-17.03-5.32-74.63-2.92-94.21,2.73-22.36,19.84-35.36,41.71-36.21h-.01ZM799.77,128.98c-10.33,1.26-15,9.17-16.05,18.83-1.81,16.71-1.65,52.65-.12,69.56,1.36,14.86,8.87,21.89,24.11,20.03,8.13-1,12.78-8.46,13.71-16.03,1.98-16.27,1.62-54.95.1-71.62-1.18-12.85-7.63-22.51-21.76-20.77h.01Z"/>
  <path class="cls-3" d="M602.09,131.78v36.9h35.38c3.43,0,3.05,17.81,2.61,21.06-1.07,8-11.14,4.59-15.94,4.77-7.26.29-14.86,2.16-22.04-.2v39.98h40.5c5.8,0,4.22,23.58,1.03,23.58h-66.66c-.18,0-1.81-1.58-2.03-2.07V110.27l2.57-2.56,64.9-.34c6.34,1.9,4.46,24.4.2,24.4h-40.52Z"/>
  <path class="cls-3" d="M379.06,214.83c3.39.94,2.76,8.95,2.54,11.78-3.69,47.33-83.55,47.83-87.2-4.04-1.25-17.83-2.27-72.19,1.81-87.47,10.16-38.1,70.62-40.54,82.81-4.3,1.26,3.75,5.19,25.6.03,25.6h-20.51c-2.9,0-3.42-12.36-4.29-15.19-5.14-16.75-26.84-15.62-31.62-.2-3.25,10.5-2.68,63.35-1.56,76.42,1.22,14.25,10.41,25.08,25.38,19.15,6.13-2.43,7.44-6.61,9.07-12.47.52-1.84.2-9.29,3.02-9.29,4.55,0,17.24-.91,20.51,0h0Z"/>
  <path class="cls-3" d="M691.31,234.3h46.66c5.8,0,4.22,23.58,1.03,23.58h-75.88c-4.49,0-4.13-17.36-3.1-20.53l48.73-105.56h-44.6c-5.89,0-6.95-22.56-.83-24.4l72.66-.25c8.15,1.09,5.51,13.45,5.11,19.56l-49.76,107.61h-.01Z"/>
  <path class="cls-3" d="M405.93,107.4c4.53-1.3,25.33-2.26,23.9,6.43v138.43c-.11,1.54-.71,4.34-2.05,5.13-.48.28-9.52,1.51-10.78,1.53-1.49.01-11.07-.93-12.11-1.23s-1.74-.97-2.26-1.84l-.56-143.06c-.1-2.12,1.89-4.8,3.86-5.37h.01Z"/>
  <path class="cls-4" d="M220.23,37.55c-5.97,1.78-11.76.53-17.84-.03-6.37-.59-12.4-3.81-18.89-3.49-5.93.29-14.01,4.59-17.8,9.1-4.89,5.82-8.4,13.69-7.88,21.39.55,8.18,4.51,15.61,10.32,21.3,2.17,2.12,5.97,6.07,8.92,6.93,2.45.71,1.07-5.21-.75-3.41-.48.47-.85,1.54-1.17,2.13-1.16,2.13-2.27,4.25-3.18,6.51-5.44,13.6.75,29.27,13.03,36.99,10.91,6.86,28.38,8.45,40.3,3.45,3.01-1.26,5.09-3.96,4.19-7.38-.75-2.83-4.4-5.44-7.38-4.19-9.84,4.13-26.39,3.46-34.03-4.79-5.43-5.86-7.96-12.57-4.81-20.22,1.53-3.71,4.71-7.07,5.06-11.18.37-4.36-2.66-6.53-5.88-8.7-6.98-4.72-14.15-12.25-12.45-21.46,1.2-6.52,6.81-13.17,13.53-14.45,3.12-.6,6.87,1.24,9.8,2.1,3.53,1.03,7.07,1.18,10.71,1.55,6.72.69,12.81,1.4,19.42-.56,7.39-2.19,4.24-13.78-3.19-11.57h0Z"/>
  <path class="cls-2" d="M203.81,92.46c5.79,0,5.8-9,0-9s-5.8,9,0,9h0Z"/>
  <path class="cls-2" d="M222.08,92.59l.68-.99c.33-.52.51-1.07.53-1.67.13-.6.11-1.2-.08-1.79-.14-.59-.41-1.1-.81-1.53-.32-.49-.74-.88-1.26-1.16l-1.07-.45c-.8-.21-1.6-.21-2.39,0l-1.07.45c-.68.4-1.21.94-1.61,1.61l-.68.99c-.33.52-.51,1.07-.53,1.67-.13.6-.11,1.2.08,1.79.14.59.41,1.1.81,1.53.32.49.74.88,1.26,1.16l1.07.45c.8.21,1.6.21,2.39,0l1.07-.45c.68-.4,1.21-.94,1.61-1.61h0Z"/>
  <path class="cls-2" d="M195.48,71.96c7.72,0,7.73-12,0-12s-7.73,12,0,12h0Z"/>
  <path class="cls-2" d="M216.15,72.62h.33c.83.03,1.6-.14,2.31-.52.74-.24,1.39-.66,1.93-1.24.59-.54,1-1.19,1.24-1.93.38-.72.55-1.49.52-2.31l-.21-1.6c-.29-1.02-.8-1.9-1.54-2.65l-1.21-.94c-.94-.54-1.95-.82-3.03-.82h-.33c-.83-.03-1.6.14-2.31.52-.74.24-1.39.66-1.93,1.24-.59.54-1,1.19-1.24,1.93-.38.72-.55,1.49-.52,2.31l.21,1.6c.29,1.02.8,1.9,1.54,2.65l1.21.94c.94.54,1.95.82,3.03.82h0Z"/>
  <path class="cls-2" d="M191.44,114.96c14.15,7.02,29.09,5.47,42.2-3.23,4.8-3.19.3-10.99-4.54-7.77-10.3,6.83-21.81,8.83-33.11,3.23-5.17-2.56-9.74,5.2-4.54,7.77h0Z"/>
</svg>